<svg xmlns="http://www.w3.org/2000/svg" version="1.1" xmlns:xlink="http://www.w3.org/1999/xlink" xmlns:svgjs="http://svgjs.dev/svgjs" width="128" height="128" viewBox="0 0 128 128"><g transform="matrix(0.8046875,0,0,0.8046875,11.275133264847767,10.088218133268725)"><svg viewBox="0 0 99 99" data-background-color="#ffffff" preserveAspectRatio="xMidYMid meet" height="128" width="128" xmlns="http://www.w3.org/2000/svg" xmlns:xlink="http://www.w3.org/1999/xlink"><g id="tight-bounds" transform="matrix(1,0,0,1,1.2359239183848842,2.4265138661748296)"><svg viewBox="0 0 95.481 95.19973287002209" height="95.19973287002209" width="95.481"><g><svg viewBox="0 0 95.481 95.19973287002209" height="95.19973287002209" width="95.481"><g><svg viewBox="0 0 95.481 95.19973287002209" height="95.19973287002209" width="95.481"><g id="textblocktransform"><svg viewBox="0 0 95.481 95.19973287002209" height="95.19973287002209" width="95.481" id="textblock"><g><svg viewBox="0 0 95.481 95.19973287002209" height="95.19973287002209" width="95.481"><g><svg viewBox="0 0 95.481 95.19973287002209" height="95.19973287002209" width="95.481"><g><svg xmlns="http://www.w3.org/2000/svg" xmlns:xlink="http://www.w3.org/1999/xlink" version="1.1" x="0" y="0" viewBox="9.768994922164376 9.806999999999995 25.46200576328821 25.387000000000008" enable-background="new 0 0 45 45" xml:space="preserve" height="95.19973287002209" width="95.481" class="icon-icon-0" data-fill-palette-color="accent" id="icon-0"><path d="M18.359 24.125C18.359 25.001 17.65 25.709 16.775 25.709H11.352A1.58 1.58 0 0 1 9.769 24.125V18.703C9.769 17.828 10.477 17.119 11.352 17.119H16.775C17.65 17.119 18.359 17.828 18.359 18.703z" fill="#471aa0" data-fill-palette-color="accent"></path><path d="M26.979 26.602H23.888L19.97 34.84C20.244 35.058 20.587 35.194 20.963 35.194H26.447C27.33 35.194 28.048 34.478 28.048 33.593V28.107A1.59 1.59 0 0 0 26.979 26.602" fill="#471aa0" data-fill-palette-color="accent"></path><path d="M32.298 9.807H21.663C20.375 9.807 19.329 10.828 19.329 12.086V33.809L23.181 25.71H32.297A2.93 2.93 0 0 0 35.231 22.778V12.739A2.933 2.933 0 0 0 32.298 9.807" fill="#471aa0" data-fill-palette-color="accent"></path><path d="M18.359 33.61C18.359 34.484 17.65 35.193 16.775 35.193H11.352A1.583 1.583 0 0 1 9.769 33.61V28.186C9.769 27.312 10.477 26.601 11.352 26.601H16.775C17.65 26.601 18.359 27.312 18.359 28.186z" fill="#471aa0" data-fill-palette-color="accent"></path></svg></g></svg></g></svg></g></svg></g></svg></g></svg></g><defs></defs></svg><rect width="95.481" height="95.19973287002209" fill="none" stroke="none" visibility="hidden"></rect></g></svg></g></svg>