<svg xmlns="http://www.w3.org/2000/svg" version="1.1" xmlns:xlink="http://www.w3.org/1999/xlink" xmlns:svgjs="http://svgjs.dev/svgjs" width="1500" height="306" viewBox="0 0 1500 306"><g transform="matrix(1,0,0,1,2.9949813460452788,6.6516570065757605)"><svg viewBox="0 0 396 81" data-background-color="#ffffff" preserveAspectRatio="xMidYMid meet" height="306" width="1500" xmlns="http://www.w3.org/2000/svg" xmlns:xlink="http://www.w3.org/1999/xlink"><g id="tight-bounds" transform="matrix(1,0,0,1,0.24732277341092868,0.1784996148965945)"><svg viewBox="0 0 395.52 80.65869012619346" height="80.65869012619346" width="395.52"><g><svg viewBox="0 0 519.9894067016146 106.04182955109405" height="80.65869012619346" width="395.52"><g transform="matrix(1,0,0,1,124.4694067016146,14.65556399729303)"><svg viewBox="0 0 395.52 76.730701556508" height="76.730701556508" width="395.52"><g id="textblocktransform"><svg viewBox="0 0 395.52 76.730701556508" height="76.730701556508" width="395.52" id="textblock"><g><svg viewBox="0 0 395.52 76.730701556508" height="76.730701556508" width="395.52"><g transform="matrix(1,0,0,1,0,0)"><svg width="395.52" viewBox="4.45 -32.9 221.63000000000002 43" height="76.730701556508" data-palette-color="#471aa0"><g class="wordmark-text-0" data-fill-palette-color="primary" id="text-0"><path d="M8.5-14.25L13.35-14.25Q17.35-14.25 19.55-15.93 21.75-17.6 21.75-21L21.75-21Q21.75-24.4 19.63-25.98 17.5-27.55 13.55-27.55L13.55-27.55Q12.2-27.55 10.88-27.43 9.55-27.3 8.5-27.1L8.5-27.1 8.5-14.25ZM13.6-10.85L4.45-10.85 4.45-28.2Q4.45-29 4.88-29.43 5.3-29.85 6.1-30.1L6.1-30.1Q7.55-30.55 9.63-30.75 11.7-30.95 13.65-30.95L13.65-30.95Q20-30.95 22.93-28.28 25.85-25.6 25.85-21.05L25.85-21.05Q25.85-17.95 24.53-15.65 23.2-13.35 20.5-12.1 17.8-10.85 13.6-10.85L13.6-10.85ZM4.45-12.8L8.55-12.8 8.55-0.1Q8.25 0 7.75 0.13 7.25 0.25 6.65 0.25L6.65 0.25Q5.55 0.25 5-0.2 4.45-0.65 4.45-1.6L4.45-1.6 4.45-12.8ZM31.75-30.4L31.75-30.4Q31.75-31.45 32.5-32.18 33.25-32.9 34.35-32.9L34.35-32.9Q35.5-32.9 36.2-32.18 36.9-31.45 36.9-30.4L36.9-30.4Q36.9-29.35 36.2-28.63 35.5-27.9 34.35-27.9L34.35-27.9Q33.25-27.9 32.5-28.63 31.75-29.35 31.75-30.4ZM32.35-13.2L36.35-13.2 36.35-0.1Q36.1 0 35.6 0.13 35.1 0.25 34.5 0.25L34.5 0.25Q33.45 0.25 32.9-0.18 32.35-0.6 32.35-1.55L32.35-1.55 32.35-13.2ZM36.35-11.25L32.35-11.25 32.35-23Q32.6-23.1 33.12-23.23 33.65-23.35 34.25-23.35L34.25-23.35Q35.3-23.35 35.82-22.93 36.35-22.5 36.35-21.5L36.35-21.5 36.35-11.25ZM51.1-13.05L51.85-13.4Q53.9-16.05 55.7-18.35 57.5-20.65 59.4-23.4L59.4-23.4Q59.6-23.45 59.7-23.45 59.8-23.45 59.95-23.45L59.95-23.45Q61-23.45 61.6-22.98 62.2-22.5 62.2-21.7L62.2-21.7Q62.2-21.15 61.97-20.65 61.75-20.15 61.25-19.5L61.25-19.5Q59.55-17.4 57.77-15.25 56-13.1 54.3-11.05L54.3-11.05 53-9.95Q51.15-7.5 49.2-4.88 47.25-2.25 45.45 0.25L45.45 0.25Q45.4 0.25 45.12 0.25 44.85 0.25 44.75 0.25L44.75 0.25Q43.6 0.25 43.02-0.25 42.45-0.75 42.45-1.5L42.45-1.5Q42.45-1.9 42.62-2.35 42.8-2.8 43.45-3.6L43.45-3.6Q45.25-6 47.25-8.33 49.25-10.65 51.1-13.05L51.1-13.05ZM53.55-12.95L54.45-12.35Q56.5-9.65 58.57-7.03 60.65-4.4 62.7-1.75L62.7-1.75Q62.6-0.8 62.05-0.25 61.5 0.3 60.6 0.3L60.6 0.3Q59.8 0.3 59.25-0.13 58.7-0.55 58-1.45L58-1.45Q56.5-3.55 54.82-5.9 53.15-8.25 51.65-10.3L51.65-10.3 50.5-11.35Q48.3-14 46.4-16.4 44.5-18.8 42.5-21.35L42.5-21.35Q42.7-22.35 43.25-22.9 43.8-23.45 44.6-23.45L44.6-23.45Q45.45-23.45 45.95-23.03 46.45-22.6 46.95-21.9L46.95-21.9Q48.45-19.9 50.1-17.53 51.75-15.15 53.55-12.95L53.55-12.95ZM69.69-9L69.49-12.15 84.59-14.2Q84.39-16.95 82.69-18.73 80.99-20.5 77.99-20.5L77.99-20.5Q74.89-20.5 72.87-18.28 70.84-16.05 70.84-11.9L70.84-11.9 70.84-10.8Q71.19-6.8 73.47-4.73 75.74-2.65 79.69-2.65L79.69-2.65Q81.79-2.65 83.49-3.35 85.19-4.05 86.19-4.85L86.19-4.85Q86.74-4.5 87.07-4.03 87.39-3.55 87.39-2.95L87.39-2.95Q87.39-2 86.32-1.18 85.24-0.35 83.47 0.15 81.69 0.65 79.49 0.65L79.49 0.65Q75.64 0.65 72.82-0.75 69.99-2.15 68.47-4.93 66.94-7.7 66.94-11.7L66.94-11.7Q66.94-14.55 67.77-16.78 68.59-19 70.07-20.55 71.54-22.1 73.59-22.93 75.64-23.75 78.04-23.75L78.04-23.75Q81.09-23.75 83.42-22.45 85.74-21.15 87.07-18.82 88.39-16.5 88.39-13.5L88.39-13.5Q88.39-12.4 87.89-11.93 87.39-11.45 86.49-11.35L86.49-11.35 69.69-9ZM94.59-13.2L98.59-12.6 98.59-0.1Q98.34 0 97.84 0.13 97.34 0.25 96.74 0.25L96.74 0.25Q95.69 0.25 95.14-0.18 94.59-0.6 94.59-1.55L94.59-1.55 94.59-13.2ZM98.59-10.7L94.59-11.25 94.59-32.4Q94.84-32.5 95.37-32.63 95.89-32.75 96.44-32.75L96.44-32.75Q97.54-32.75 98.07-32.33 98.59-31.9 98.59-30.95L98.59-30.95 98.59-10.7ZM111.24-12.3L107.19-12.35 107.19-28.2Q107.19-29.2 107.79-29.8 108.39-30.4 109.39-30.4L109.39-30.4Q109.94-30.4 110.49-30.25 111.04-30.1 111.24-30L111.24-30 111.24-12.3ZM109.39-13.1L109.39-16.55 124.24-16.55Q124.39-16.3 124.54-15.88 124.69-15.45 124.69-14.95L124.69-14.95Q124.69-14.15 124.29-13.63 123.89-13.1 123.14-13.1L123.14-13.1 109.39-13.1ZM109.39-26.95L109.39-30.4 125.99-30.4Q126.14-30.2 126.29-29.75 126.44-29.3 126.44-28.8L126.44-28.8Q126.44-28 126.04-27.48 125.64-26.95 124.89-26.95L124.89-26.95 109.39-26.95ZM107.19-17.8L111.29-17.8 111.29-0.05Q111.04 0 110.51 0.13 109.99 0.25 109.44 0.25L109.44 0.25Q108.34 0.25 107.76-0.2 107.19-0.65 107.19-1.55L107.19-1.55 107.19-17.8ZM153.79-11.55L153.79-11.55Q153.79-7.85 152.39-5.1 150.99-2.35 148.44-0.85 145.89 0.65 142.44 0.65L142.44 0.65Q138.99 0.65 136.41-0.85 133.84-2.35 132.44-5.1 131.03-7.85 131.03-11.55L131.03-11.55Q131.03-15.3 132.46-18.03 133.89-20.75 136.46-22.25 139.03-23.75 142.44-23.75L142.44-23.75Q145.84-23.75 148.39-22.25 150.94-20.75 152.36-18.03 153.79-15.3 153.79-11.55ZM142.44-20.45L142.44-20.45Q139.09-20.45 137.11-18.07 135.14-15.7 135.14-11.55L135.14-11.55Q135.14-7.35 137.06-5 138.99-2.65 142.44-2.65L142.44-2.65Q145.84-2.65 147.76-5.03 149.69-7.4 149.69-11.55L149.69-11.55Q149.69-15.7 147.76-18.07 145.84-20.45 142.44-20.45ZM163.98-18.8L163.98-10.9 159.98-10.9 159.98-18.5Q159.98-19.65 160.41-20.33 160.83-21 161.83-21.65L161.83-21.65Q163.13-22.5 165.38-23.13 167.63-23.75 170.38-23.75L170.38-23.75Q174.38-23.75 174.38-21.75L174.38-21.75Q174.38-21.25 174.23-20.83 174.08-20.4 173.83-20.1L173.83-20.1Q173.33-20.2 172.53-20.3 171.73-20.4 170.93-20.4L170.93-20.4Q168.63-20.4 166.88-19.93 165.13-19.45 163.98-18.8L163.98-18.8ZM159.98-13.2L163.98-12.6 163.98-0.1Q163.73 0 163.23 0.13 162.73 0.25 162.13 0.25L162.13 0.25Q161.08 0.25 160.53-0.18 159.98-0.6 159.98-1.55L159.98-1.55 159.98-13.2ZM188.68-0.7L188.68-0.7Q185.78-0.7 183.33-1.83 180.88-2.95 179.38-5.5 177.88-8.05 177.88-12.25L177.88-12.25Q177.88-16.05 179.36-18.6 180.83-21.15 183.43-22.45 186.03-23.75 189.38-23.75L189.38-23.75Q191.68-23.75 193.61-23.18 195.53-22.6 196.83-21.75L196.83-21.75Q197.58-21.25 198.06-20.63 198.53-20 198.53-19.1L198.53-19.1 198.53-3.65 194.53-3.65 194.53-19.05Q193.68-19.6 192.41-20.03 191.13-20.45 189.38-20.45L189.38-20.45Q186.03-20.45 183.98-18.4 181.93-16.35 181.93-12.3L181.93-12.3Q181.93-7.8 184.01-5.9 186.08-4 189.13-4L189.13-4Q191.33-4 192.68-4.75 194.03-5.5 194.83-6.4L194.83-6.4 195.03-2.85Q194.28-2.05 192.66-1.38 191.03-0.7 188.68-0.7ZM194.53 0.75L194.53-4.5 198.53-4.5 198.53 1Q198.53 4.3 197.11 6.3 195.68 8.3 193.21 9.2 190.73 10.1 187.63 10.1L187.63 10.1Q185.13 10.1 183.33 9.55 181.53 9 180.88 8.65L180.88 8.65Q179.38 7.8 179.38 6.5L179.38 6.5Q179.38 5.8 179.71 5.33 180.03 4.85 180.53 4.6L180.53 4.6Q181.58 5.4 183.51 6.08 185.43 6.75 187.63 6.75L187.63 6.75Q190.98 6.75 192.76 5.3 194.53 3.85 194.53 0.75L194.53 0.75ZM207.38-9L207.18-12.15 222.28-14.2Q222.08-16.95 220.38-18.73 218.68-20.5 215.68-20.5L215.68-20.5Q212.58-20.5 210.55-18.28 208.53-16.05 208.53-11.9L208.53-11.9 208.53-10.8Q208.88-6.8 211.15-4.73 213.43-2.65 217.38-2.65L217.38-2.65Q219.48-2.65 221.18-3.35 222.88-4.05 223.88-4.85L223.88-4.85Q224.43-4.5 224.75-4.03 225.08-3.55 225.08-2.95L225.08-2.95Q225.08-2 224-1.18 222.93-0.35 221.15 0.15 219.38 0.65 217.18 0.65L217.18 0.65Q213.33 0.65 210.5-0.75 207.68-2.15 206.15-4.93 204.63-7.7 204.63-11.7L204.63-11.7Q204.63-14.55 205.45-16.78 206.28-19 207.75-20.55 209.23-22.1 211.28-22.93 213.33-23.75 215.73-23.75L215.73-23.75Q218.78-23.75 221.1-22.45 223.43-21.15 224.75-18.82 226.08-16.5 226.08-13.5L226.08-13.5Q226.08-12.4 225.58-11.93 225.08-11.45 224.18-11.35L224.18-11.35 207.38-9Z" fill="#471aa0" data-fill-palette-color="primary"></path></g></svg></g></svg></g></svg></g></svg></g><g><svg viewBox="0 0 106.35512960096042 106.04182955109405" height="106.04182955109405" width="106.35512960096042"><g><svg xmlns="http://www.w3.org/2000/svg" xmlns:xlink="http://www.w3.org/1999/xlink" version="1.1" x="0" y="0" viewBox="9.768994922164376 9.806999999999995 25.46200576328821 25.387000000000008" enable-background="new 0 0 45 45" xml:space="preserve" height="106.04182955109405" width="106.35512960096042" class="icon-icon-0" data-fill-palette-color="accent" id="icon-0"><path d="M18.359 24.125C18.359 25.001 17.65 25.709 16.775 25.709H11.352A1.58 1.58 0 0 1 9.769 24.125V18.703C9.769 17.828 10.477 17.119 11.352 17.119H16.775C17.65 17.119 18.359 17.828 18.359 18.703z" fill="#471aa0" data-fill-palette-color="accent"></path><path d="M26.979 26.602H23.888L19.97 34.84C20.244 35.058 20.587 35.194 20.963 35.194H26.447C27.33 35.194 28.048 34.478 28.048 33.593V28.107A1.59 1.59 0 0 0 26.979 26.602" fill="#471aa0" data-fill-palette-color="accent"></path><path d="M32.298 9.807H21.663C20.375 9.807 19.329 10.828 19.329 12.086V33.809L23.181 25.71H32.297A2.93 2.93 0 0 0 35.231 22.778V12.739A2.933 2.933 0 0 0 32.298 9.807" fill="#471aa0" data-fill-palette-color="accent"></path><path d="M18.359 33.61C18.359 34.484 17.65 35.193 16.775 35.193H11.352A1.583 1.583 0 0 1 9.769 33.61V28.186C9.769 27.312 10.477 26.601 11.352 26.601H16.775C17.65 26.601 18.359 27.312 18.359 28.186z" fill="#471aa0" data-fill-palette-color="accent"></path></svg></g></svg></g></svg></g><defs></defs></svg><rect width="395.52" height="80.65869012619346" fill="none" stroke="none" visibility="hidden"></rect></g></svg></g></svg>